<svg xmlns="http://www.w3.org/2000/svg" width="292.123" height="43.153" viewBox="0 0 292.123 43.153">
  <g id="logo" transform="translate(-253.756 -109.46)">
    <g id="Groupe_30" data-name="Groupe 30" transform="translate(331.828 109.46)">
      <path id="Tracé_61" data-name="Tracé 61" d="M488.51,153.012a2.935,2.935,0,0,1,1.456,2.352c0,1.624-1.846,2.463-5.539,2.463H479.11c-3.693,0-5.539-.84-5.539-2.463a2.926,2.926,0,0,1,1.456-2.352c.9-.672,1.063-1.286,1.063-3.191V125.98c0-1.679-.45-2.63-1.23-2.63h-.279c-2.24,0-3.582,1.174-4.982,4.2-1.4,3.136-2.909,4.588-4.421,4.254-1.23-.223-1.512-1.456-1.118-5.539.505-5.71,1.4-7.613,3.749-7.613h27.927c2.352,0,3.247,1.9,3.749,7.724.334,3.975.111,5.205-1.118,5.428-1.512.334-2.965-1.063-4.477-4.2-1.4-3.08-2.742-4.254-4.926-4.254h-.279c-.784,0-1.23.951-1.23,2.63v23.841c0,1.958.167,2.519,1.063,3.191Z" transform="translate(-463.894 -115.236)" fill="#2f2fc9"/>
      <path id="Tracé_62" data-name="Tracé 62" d="M575.175,176.464c-3.247,0-5.539-2.069-6.55-5.933l-3.581-13.542a9.7,9.7,0,0,0-2.352-4.588c-1.847-1.791-.951-4.254,4.254-4.254h4.365c3.47,0,4.815,1.174,4.533,3.975a4.829,4.829,0,0,0-.056.9,18.88,18.88,0,0,0,.784,4.811l1.9,6.94c.9,3.359,1.679,4.588,2.742,4.588.84,0,1.345-1.118,1.345-3.526a28.8,28.8,0,0,0-1.512-9.236,9.054,9.054,0,0,0-2.24-4.254c-1.846-1.735-1.007-4.2,4.2-4.2h4.365c3.47,0,4.815,1.174,4.533,3.975a4.819,4.819,0,0,0-.056.9,18.88,18.88,0,0,0,.784,4.811l1.9,6.94c.9,3.359,1.679,4.588,2.742,4.588.9,0,1.4-1.285,1.4-3.975,0-6.156-2.463-9.961-2.463-12.985,0-2.8,2.125-4.533,5.484-4.533s4.588,1.735,4.588,6.435c0,10.971-7.613,22.161-15.054,22.161-2.853,0-4.477-1.846-5.989-4.871-.223-.446-.449-.672-.672-.672a1.153,1.153,0,0,0-.784.505c-2.575,3.136-5.6,5.038-8.619,5.038Z" transform="translate(-525.432 -133.593)" fill="#2f2fc9"/>
      <path id="Tracé_63" data-name="Tracé 63" d="M702.7,148.37c1.118.9,1.456,1.345,1.456,2.069,0,1.456-1.791,2.185-5.539,2.185h-5.038c-3.749,0-5.6-.728-5.6-2.185,0-.728.334-1.174,1.456-2.069.84-.672,1.118-1.4,1.118-3.414V133.144a3.992,3.992,0,0,0-1.846-3.916c-.9-.672-1.285-1.063-1.285-1.791,0-2.965,8.281-3.359,10.187-3.359,3.247,0,4.254.84,4.254,3.47,0,1.456-.279,3.359-.279,5.317v12.089c0,2.014.223,2.742,1.118,3.414Zm-7.163-38c3.637,0,6.156,2.069,6.156,5.149s-2.463,5.149-6.156,5.149-6.212-2.014-6.212-5.149S691.792,110.37,695.54,110.37Z" transform="translate(-604.381 -110.032)" fill="#2f2fc9"/>
      <path id="Tracé_64" data-name="Tracé 64" d="M738.54,121.1c0-7.052,3.975-11.64,10.132-11.64,4.755,0,8.9,2.686,8.9,6.606,0,2.853-2.185,4.7-5.484,4.7s-5.317-1.679-5.317-4.365c0-1.846.951-3.8-.056-3.8-.951,0-1.679,2.014-1.679,4.31,0,3.916,2.069,7.163,4.755,7.163h1.23c2.575,0,3.191.561,3.191,2.3s-.728,2.519-3.191,2.519a1.246,1.246,0,0,0-1.4,1.4v13.824c0,2.014.279,2.8,1.286,3.47,1.4.951,1.791,1.4,1.791,2.185,0,1.512-1.846,2.3-5.651,2.3h-5.317q-5.706,0-5.707-2.185c0-.728.334-1.174,1.456-2.069.84-.672,1.063-1.4,1.063-3.414v-14.1c0-.9-.449-1.345-1.4-1.512-1.23-.223-1.679-.784-1.679-2.185s.505-2.125,1.679-2.407c1.007-.167,1.4-.672,1.4-1.512V121.1Z" transform="translate(-634.566 -109.46)" fill="#2f2fc9"/>
      <path id="Tracé_65" data-name="Tracé 65" d="M802.916,147.12c9.4,0,15.277,5.428,15.277,14.553s-5.878,14.608-15.277,14.608S787.58,170.8,787.58,161.673,793.4,147.12,802.916,147.12Zm1.846,25.8c2.24,0,2.965-2.352,2.965-5.261,0-4.756-2.575-17.183-6.773-17.183-2.24,0-2.965,2.352-2.965,5.261C797.99,160.491,800.565,172.919,804.763,172.919Z" transform="translate(-667.323 -133.128)" fill="#2f2fc9"/>
      <path id="Tracé_66" data-name="Tracé 66" d="M887.165,168.146c0,2.014.223,2.742,1.063,3.414,1.118.9,1.456,1.345,1.456,2.069,0,1.456-1.791,2.185-5.484,2.185h-5.094q-5.539,0-5.539-2.185c0-.728.334-1.174,1.457-2.069.839-.672,1.062-1.4,1.062-3.414V156.335a4.058,4.058,0,0,0-1.791-3.916c-.9-.672-1.286-1.118-1.286-1.791,0-2.965,8.281-3.359,10.187-3.359,2.63,0,3.749.505,4.142,2.069.111.561.279.84.561.84a1.764,1.764,0,0,0,.617-.279,12.251,12.251,0,0,1,7.5-2.63c5.707,0,9.18,3.8,9.18,10.016v10.856c0,2.014.223,2.742,1.063,3.414,1.118.9,1.456,1.345,1.456,2.069,0,1.456-1.791,2.185-5.484,2.185h-5.094q-5.54,0-5.54-2.185c0-.728.334-1.174,1.456-2.069.84-.672,1.063-1.4,1.063-3.414V157.788c0-2.853-1.4-4.644-3.582-4.644-2.014,0-3.359,1.512-3.359,3.749v11.25Z" transform="translate(-721.013 -133.223)" fill="#2f2fc9"/>
      <path id="Tracé_67" data-name="Tracé 67" d="M988.492,160.667a41.981,41.981,0,0,1-8.281,1.174c1.118,4.31,3.86,6.884,7.724,6.884a6.3,6.3,0,0,0,5.094-2.24,2.049,2.049,0,0,1,1.624-1.063c.9,0,1.174.784.9,2.407-.9,4.982-5.71,8.337-12.089,8.337-8.4,0-14.047-5.878-14.047-14.553s5.766-14.664,14.441-14.664c6.435,0,10.689,3.191,10.689,8.058,0,2.909-1.568,4.421-6.045,5.651Zm-8.225-1.791c3.08-.167,4.926-1.958,4.926-4.871,0-2.24-1.063-3.8-2.575-3.8-1.9,0-3.021,2.463-3.021,6.661,0,.728.056,1.4.111,2.069l.561-.056Z" transform="translate(-781.598 -133.022)" fill="#2f2fc9"/>
    </g>
    <g id="Groupe_32" data-name="Groupe 32" transform="translate(253.756 109.903)">
      <g id="Groupe_31" data-name="Groupe 31" transform="translate(0 0)">
        <path id="Tracé_68" data-name="Tracé 68" d="M317.579,115.782h0a21.1,21.1,0,0,0-16.485-4.96,1.567,1.567,0,0,0-.9,2.664l2.3,2.3A10.667,10.667,0,0,0,317.579,115.782Z" transform="translate(-282.654 -110.653)" fill="#2f2fc9"/>
        <path id="Tracé_69" data-name="Tracé 69" d="M348.376,145.444l2.3,2.3a1.567,1.567,0,0,0,2.664-.9,21.1,21.1,0,0,0-4.96-16.485h0a10.667,10.667,0,0,0,0,15.084Z" transform="translate(-311.259 -123.038)" fill="#2f2fc9"/>
        <path id="Tracé_70" data-name="Tracé 70" d="M306.98,176.161l-4.585-4.585a10.667,10.667,0,0,0-15.084,0l-11.272,11.272a1.565,1.565,0,0,0,.175,2.37A21.139,21.139,0,0,0,307.259,178,1.567,1.567,0,0,0,306.98,176.161Z" transform="translate(-267.471 -146.978)" fill="#2f2fc9"/>
        <path id="Tracé_71" data-name="Tracé 71" d="M271.405,121.825l-4.585-4.585a1.568,1.568,0,0,0-1.843-.279,21.139,21.139,0,0,0-7.215,31.045,1.563,1.563,0,0,0,2.37.175l11.272-11.272a10.667,10.667,0,0,0,0-15.084Z" transform="translate(-253.757 -114.503)" fill="#2f2fc9"/>
      </g>
      <circle id="Ellipse_5" data-name="Ellipse 5" cx="2.749" cy="2.749" r="2.749" transform="translate(24.633 12.512)" fill="#2f2fc9"/>
    </g>
  </g>
</svg>
