<?xml version="1.0" encoding="UTF-8"?>
<svg id="Layer_1" data-name="Layer 1" xmlns="http://www.w3.org/2000/svg" viewBox="0 0 221 186">
  <defs>
    <style>
      .cls-1 {
        fill: #fff;
      }
    </style>
  </defs>
  <g>
    <path class="cls-1" d="m152.76,53.46h0c-12.58-10.88-28.81-15.33-44.37-13.35-3.46.44-4.88,4.7-2.41,7.17l6.18,6.18c11.21,11.21,29.39,11.21,40.6,0Z"/>
    <path class="cls-1" d="m158.66,99.96l6.18,6.18c2.47,2.47,6.73,1.05,7.17-2.41,1.98-15.56-2.47-31.78-13.35-44.37h0c-11.21,11.21-11.21,29.39,0,40.6h0Z"/>
    <path class="cls-1" d="m165.1,118.2l-12.34-12.34c-11.21-11.21-29.39-11.21-40.6,0l-30.34,30.34c-1.82,1.82-1.62,4.87.47,6.38,22.23,16.12,53.5,14.16,73.53-5.87,4.1-4.1,7.45-8.68,10.03-13.55.87-1.64.56-3.65-.75-4.96Z"/>
    <path class="cls-1" d="m106.26,59.36l-12.34-12.34c-1.31-1.31-3.33-1.62-4.96-.75-4.87,2.59-9.45,5.93-13.55,10.03-20.04,20.04-21.99,51.3-5.87,73.53,1.51,2.09,4.56,2.3,6.38.47l30.34-30.34c11.21-11.21,11.21-29.39,0-40.6h0Z"/>
  </g>
  <circle class="cls-1" cx="132.46" cy="80.73" r="7.4"/>
</svg>