<svg xmlns="http://www.w3.org/2000/svg" width="16" height="16" viewBox="0 0 16 16">
  <path id="i" d="M10.618,15.079a3.127,3.127,0,0,1,0-4.441,3.141,3.141,0,1,1,0,4.441Zm1.846-4.013v1.966a.286.286,0,0,0,.292.291h1.633a.283.283,0,0,0,.288-.291.287.287,0,0,0-.292-.29H13.048V11.066a.292.292,0,0,0-.584,0ZM0,13.923V5.205H13.789V9.124a3.865,3.865,0,0,0-4.667,4.8Zm5.978-2.351H7.814V10.139H5.978Zm-3.938,0H3.876V10.139H2.04ZM9.9,8.16H11.74V6.714H9.9ZM5.978,8.147H7.814V6.714H5.978Zm-3.938,0H3.876V6.714H2.04ZM0,4.467V1.447H.816V2.475a1.112,1.112,0,0,0,2.223,0V1.447h1.1V2.475a1.109,1.109,0,0,0,2.217,0V1.447H7.421V2.475a1.108,1.108,0,0,0,2.216,0V1.447h1.1V2.475a1.108,1.108,0,0,0,2.216,0V1.447h.826v3.02ZM11.483,2.475V.369a.371.371,0,0,1,.741,0v2.1a.372.372,0,0,1-.371.369A.367.367,0,0,1,11.483,2.475Zm-3.315,0V.369a.371.371,0,0,1,.741,0v2.1a.372.372,0,0,1-.371.369A.387.387,0,0,1,8.168,2.475Zm-3.3,0V.369a.37.37,0,0,1,.74,0v2.1a.371.371,0,0,1-.371.369A.367.367,0,0,1,4.87,2.475Zm-3.3,0V.369a.371.371,0,0,1,.741,0v2.1a.371.371,0,0,1-.741,0Z" transform="translate(0 0)" fill="#a1b4d1"/>
</svg>
