<svg id="messagerecu" xmlns="http://www.w3.org/2000/svg" width="45.124" height="21.781" viewBox="0 0 45.124 21.781">
  <path id="Tracé_46" data-name="Tracé 46" d="M16.737,39.835l.422-12.61a.962.962,0,0,0-.941-1.006h0a.973.973,0,0,0-1.006.941l-.422,12.62a.973.973,0,0,1-1.709.606l-3.1-3.59A.962.962,0,0,0,8.6,36.7h0a.984.984,0,0,0-.1,1.373l6.359,7.375a.984.984,0,0,0,1.427,0l6.824-6.867a.973.973,0,0,0,0-1.373h0a.973.973,0,0,0-1.373,0L18.414,40.56a.973.973,0,0,1-1.676-.725Z" transform="translate(-8.274 -26.219)" fill="#2f2fc9"/>
  <path id="Tracé_47" data-name="Tracé 47" d="M45.066,29.793H30.11m-3.471,3.244.3-.27a3.244,3.244,0,0,1,1.947-.616H46.375a3.342,3.342,0,0,1,1.6.389l.908.844h0a1.936,1.936,0,0,1,.205.487L37.194,39.7,26.109,34.151a1.828,1.828,0,0,1,.53-1.081ZM46.375,45.42H28.888a2.541,2.541,0,0,1-2.8-2.163v-6.7l11.052,5.526,12.036-5.861v7.04a2.541,2.541,0,0,1-2.8,2.163ZM50.1,30.831h0a3.807,3.807,0,0,0-2.617-1.081H27.688a3.839,3.839,0,0,0-2.606,1.027l-.433.4a4,4,0,0,0-1.579,3.06v8.987c0,2.476,2.606,4.488,5.818,4.488H46.375c3.244,0,5.818-2.011,5.818-4.488V34.281a4.185,4.185,0,0,0-2.1-3.45Z" transform="translate(-7.069 -25.932)" fill="#2f2fc9"/>
</svg>
