<svg xmlns="http://www.w3.org/2000/svg" width="31" height="31" viewBox="0 0 31 31">
  <g id="Frame" transform="translate(-0.475 0.013)">
    <rect id="Frame-2" data-name="Frame" width="31" height="31" transform="translate(0.475 -0.013)" fill="none"/>
    <g id="appelentrant" transform="translate(1.081 1.081)">
      <path id="Tracé_40" data-name="Tracé 40" d="M32.968,38.933A12.871,12.871,0,0,1,27.543,37.5,32.177,32.177,0,0,1,13.889,25.154a14.164,14.164,0,0,1-2.419-7.43,7.451,7.451,0,0,1,4.251-6.96,3.359,3.359,0,0,1,2.208-.211,3.8,3.8,0,0,1,1.339.783,45.321,45.321,0,0,1,3.421,3.053,4.964,4.964,0,0,1,1.5,2.27c.572,2.349-1.566,4.126-2.623,4.971l-.086.07a25.053,25.053,0,0,0,5.355,5.621l.47.384c.478.391,1.206.994,1.527.869a5.175,5.175,0,0,0,1.127-.783,7.132,7.132,0,0,1,1.934-1.206,2.725,2.725,0,0,1,1.347-.2,2.811,2.811,0,0,1,1.276.572A33.023,33.023,0,0,1,39.028,30.8a2.928,2.928,0,0,1,.908,1.566,2.928,2.928,0,0,1-.4,1.762,9.544,9.544,0,0,1-2.748,3.609,6.451,6.451,0,0,1-3.821,1.2ZM17.169,12.8a1.519,1.519,0,0,0-.548.133,5.206,5.206,0,0,0-2.8,4.807A12.127,12.127,0,0,0,15.9,23.948,29.8,29.8,0,0,0,28.576,35.41c3.915,1.855,5.974,1.08,6.843.454A7.383,7.383,0,0,0,37.447,33.1a3.671,3.671,0,0,0,.157-.344,2.451,2.451,0,0,0-.251-.29,30.408,30.408,0,0,0-4.2-3.578,1.746,1.746,0,0,0-.235-.157,1.229,1.229,0,0,0-.219.07,5.23,5.23,0,0,0-1.292.869,6.686,6.686,0,0,1-1.722,1.1,2.529,2.529,0,0,1-.955.188,4.885,4.885,0,0,1-2.92-1.425L25.4,29.21a27.284,27.284,0,0,1-5.88-6.2,2.349,2.349,0,0,1-.493-1.276,2.411,2.411,0,0,1,1.049-1.9c1.816-1.488,1.934-2.169,1.824-2.6a2.881,2.881,0,0,0-.853-1.151c-1.033-1.018-2.129-2-3.257-2.912a2.247,2.247,0,0,0-.509-.344ZM32.89,28.732ZM21.342,21.506Z" transform="translate(-11.47 -9.872)" fill="#1b8f5a"/>
      <path id="Tracé_41" data-name="Tracé 41" d="M45.374,9.71l-8.494,7.954.407-5.911-1.4-.094-.6,8.455,8.471-.031V18.674l-5.919.016,8.5-7.946Z" transform="translate(-16.641 -9.71)" fill="#1b8f5a"/>
    </g>
  </g>
</svg>
