<svg id="aoppelsortant" xmlns="http://www.w3.org/2000/svg" width="30.454" height="29.199" viewBox="0 0 30.454 29.199">
  <path id="Tracé_42" data-name="Tracé 42" d="M33.384,39.283a13.2,13.2,0,0,1-5.531-1.437A32.91,32.91,0,0,1,13.83,25.156a14.522,14.522,0,0,1-2.48-7.618,7.614,7.614,0,0,1,4.359-7.128,3.371,3.371,0,0,1,2.256-.225,3.933,3.933,0,0,1,1.381.8,44.836,44.836,0,0,1,3.5,3.13,5.009,5.009,0,0,1,1.533,2.32c.586,2.408-1.605,4.23-2.689,5.1l-.088.072a25.686,25.686,0,0,0,5.523,5.779l.482.393c.5.4,1.244,1.019,1.565.891a5.121,5.121,0,0,0,1.156-.8,7.361,7.361,0,0,1,1.991-1.236,2.745,2.745,0,0,1,1.373-.209A2.97,2.97,0,0,1,35,27.01a34.434,34.434,0,0,1,4.632,3.941,3,3,0,0,1,.931,1.605,2.946,2.946,0,0,1-.409,1.806,9.785,9.785,0,0,1-2.85,3.749A6.614,6.614,0,0,1,33.384,39.283ZM17.194,12.489a1.549,1.549,0,0,0-.57.136,5.352,5.352,0,0,0-2.874,4.929,12.433,12.433,0,0,0,2.135,6.365,30.55,30.55,0,0,0,13,11.783c4.013,1.9,6.124,1.108,7.024.466a7.578,7.578,0,0,0,2.071-2.874,3.011,3.011,0,0,0,.161-.353,2.047,2.047,0,0,0-.257-.289A30.679,30.679,0,0,0,33.544,29L33.3,28.84a1.26,1.26,0,0,0-.217.072,4.92,4.92,0,0,0-1.324.867A7.056,7.056,0,0,1,30,30.9a2.6,2.6,0,0,1-.987.193,5.009,5.009,0,0,1-2.994-1.461c-.153-.12-.289-.241-.425-.337a28.15,28.15,0,0,1-6.028-6.357,2.408,2.408,0,0,1-.466-1.308,2.512,2.512,0,0,1,1.076-1.983c1.862-1.525,1.975-2.223,1.87-2.665a3.123,3.123,0,0,0-.883-1.18c-1.06-1.043-2.183-2.047-3.331-2.986a2.175,2.175,0,0,0-.53-.353ZM33.3,28.824ZM21.5,21.415Z" transform="translate(-11.35 -10.086)" fill="#2f2fc9"/>
  <path id="Tracé_43" data-name="Tracé 43" d="M37.821,12.744l.008,1.453,6.06-.024L35.18,22.328l.987,1.052,8.717-8.147-.425,6.052,1.445.1.6-8.669Z" transform="translate(-16.052 -10.606)" fill="#2f2fc9"/>
</svg>
