<svg xmlns="http://www.w3.org/2000/svg" width="39.576" height="22.916" viewBox="0 0 39.576 22.916">
  <path id="message" d="M42.826,17.81H26.432a8.2,8.2,0,0,0-6.543,3.244H13.314a1.644,1.644,0,0,0,0,3.244H18.4a8.121,8.121,0,0,0-.162,1.633v1.644H13.314a1.644,1.644,0,1,0,0,3.244h4.921v1.633a8.23,8.23,0,0,0,.162,1.784H13.314a1.644,1.644,0,1,0,0,3.244h6.575a8.165,8.165,0,0,0,6.543,3.244H42.826a8.208,8.208,0,0,0,8.154-8.165V26.007a8.208,8.208,0,0,0-8.154-8.2Zm0,3.244-7.192,5.407a1.655,1.655,0,0,1-1.968,0l-7.2-5.407Zm4.91,11.506a4.921,4.921,0,0,1-4.91,4.921H26.432a4.921,4.921,0,0,1-4.921-4.921V26.007a4.9,4.9,0,0,1,1.417-3.45l8.749,6.564a4.964,4.964,0,0,0,5.9,0l8.738-6.564a4.9,4.9,0,0,1,1.417,3.45Z" transform="translate(-11.404 -17.81)" fill="#1b8f5a"/>
</svg>
