<svg id="appelmaque" xmlns="http://www.w3.org/2000/svg" width="30.713" height="30.705" viewBox="0 0 30.713 30.705">
  <path id="Tracé_44" data-name="Tracé 44" d="M34.654,40.638a13.855,13.855,0,0,1-5.851-1.5A34.7,34.7,0,0,1,14.079,25.787a15.3,15.3,0,0,1-2.609-8.012,8.035,8.035,0,0,1,4.585-7.506,3.622,3.622,0,0,1,2.381-.228,4.222,4.222,0,0,1,1.444.844c1.275,1.038,2.533,2.153,3.69,3.3a5.353,5.353,0,0,1,1.613,2.448c.616,2.533-1.689,4.441-2.828,5.361l-.093.076a27.018,27.018,0,0,0,5.775,6.071l.507.405c.515.431,1.3,1.081,1.646.937a5.513,5.513,0,0,0,1.216-.844,7.709,7.709,0,0,1,2.085-1.309,2.668,2.668,0,0,1,2.828.405,35.554,35.554,0,0,1,4.872,4.2,3.183,3.183,0,0,1,.979,1.689,3.107,3.107,0,0,1-.431,1.891,10.317,10.317,0,0,1-2.963,3.9A6.957,6.957,0,0,1,34.654,40.638ZM17.616,12.455a1.689,1.689,0,0,0-.591.152A5.605,5.605,0,0,0,14,17.791a13.052,13.052,0,0,0,2.246,6.687A32.083,32.083,0,0,0,29.918,36.847c4.222,1.993,6.442,1.165,7.379.49a7.962,7.962,0,0,0,2.187-2.98,3.341,3.341,0,0,1,.169-.38,3.918,3.918,0,0,0-.27-.3,33.443,33.443,0,0,0-4.525-3.85c-.051,0-.186-.127-.253-.16l-.236.068a5.91,5.91,0,0,0-1.393.912,7.21,7.21,0,0,1-1.857,1.19,2.727,2.727,0,0,1-1.03.2A5.314,5.314,0,0,1,26.938,30.5l-.447-.363A29.382,29.382,0,0,1,20.149,23.5a2.533,2.533,0,0,1-.532-1.376,2.6,2.6,0,0,1,1.131-2.052c1.959-1.6,2.085-2.339,1.967-2.8a3.107,3.107,0,0,0-.92-1.283c-1.114-1.1-2.3-2.153-3.512-3.141a2.17,2.17,0,0,0-.549-.371ZM34.57,29.645ZM22.117,21.852Z" transform="translate(-11.47 -9.936)" fill="#ec353a"/>
  <path id="Tracé_45" data-name="Tracé 45" d="M34.908,20.207l.7-1.342.684-1.114h2.263v.118l-2.339,3.58,2.533,3.664V25.2H36.428l-.692-1.03-.844-1.385-.844,1.4L33.363,25.2H31.1v-.084l2.533-3.664-2.339-3.58V17.75h2.254l.692,1.14Z" transform="translate(-14.526 -11.153)" fill="#ec353a"/>
</svg>
