<svg xmlns="http://www.w3.org/2000/svg" width="172" height="300" viewBox="0 0 172 300">
  <g id="Icon" transform="translate(-16)">
    <path id="Path" d="M53.078,215.29c29.361,0,53.078-25.112,53.078-55.915V55.915C106.156,25.112,82.439,0,53.078,0S0,25.112,0,55.915v103.46C0,190.179,23.717,215.29,53.078,215.29Z" transform="translate(49)" fill="#ebebeb"/>
    <path id="Path-2" data-name="Path" d="M160.578,0V53.371c0,40.313-33.459,73.125-73.906,73.125S12.766,93.683,12.766,53.371V0H0V53.371c0,45,35.609,82.1,80.625,85.379V180.8H31.578v12.054H139.75V180.8H93.391V138.75C137.734,135.469,172,98.371,172,53.371V0Z" transform="translate(16 107.143)" fill="#ebebeb"/>
  </g>
</svg>
