<svg xmlns="http://www.w3.org/2000/svg" width="24" height="24" viewBox="0 0 24 24">
  <g id="Frame_427321992" data-name="Frame 427321992" transform="translate(0 -112)">
    <g id="Frame_427321989" data-name="Frame 427321989" transform="translate(0 112)">
      <g id="Frame">
        <rect id="Frame-2" data-name="Frame" width="24" height="24" fill="none"/>
        <path id="Vector" d="M15.216,13.843a.75.75,0,0,1-1.256.819,7.5,7.5,0,0,0-12.576,0,.75.75,0,1,1-1.256-.819,8.984,8.984,0,0,1,4.427-3.535,5.625,5.625,0,1,1,6.234,0,8.984,8.984,0,0,1,4.427,3.535Zm-10.46-5.3a4.121,4.121,0,1,0-1.21-2.915,4.13,4.13,0,0,0,1.21,2.915ZM23.247,14.88a.75.75,0,0,1-1.038-.218,7.484,7.484,0,0,0-6.288-3.41.75.75,0,0,1,0-1.5A4.125,4.125,0,1,0,14.39,1.8.75.75,0,1,1,13.833.4a5.625,5.625,0,0,1,5.206,9.9,8.984,8.984,0,0,1,4.427,3.535.75.75,0,0,1-.218,1.038Z" transform="translate(0.203 4.498)" fill="#fff"/>
      </g>
    </g>
  </g>
</svg>
