<svg id="home" xmlns="http://www.w3.org/2000/svg" width="24" height="24" viewBox="0 0 24 24">
  <g id="Frame">
    <rect id="Frame-2" data-name="Frame" width="24" height="24" fill="none"/>
    <path id="Vector" d="M22.28,17.468a.75.75,0,0,1-.53,1.28H.75a.75.75,0,1,1,0-1.5h1.5V8.581a1.5,1.5,0,0,1,.485-1.1L10.226.4l.01-.01a1.5,1.5,0,0,1,2.018,0l.01.01,7.5,7.076a1.5,1.5,0,0,1,.485,1.1v8.667h1.5A.75.75,0,0,1,22.28,17.468Zm-18.53-.22h4.5v-4.5a1.5,1.5,0,0,1,1.5-1.5h3a1.5,1.5,0,0,1,1.5,1.5v4.5h4.5V8.579l-.01-.009L11.25,1.5,3.76,8.572l-.01.009Zm9-4.5h-3v4.5h3Z" transform="translate(0.75 2.252)" fill="#2f2fc9"/>
  </g>
</svg>
