<svg id="dailer_call" data-name="dailer call" xmlns="http://www.w3.org/2000/svg" width="24" height="24" viewBox="0 0 24 24">
  <g id="Frame">
    <rect id="Frame-2" data-name="Frame" width="24" height="24" fill="none"/>
    <path id="Vector" d="M18.552,13.236a1.5,1.5,0,0,1,.187.927A5.274,5.274,0,0,1,13.5,18.75,13.516,13.516,0,0,1,0,5.25,5.274,5.274,0,0,1,4.586.011,1.5,1.5,0,0,1,6.144.9L8.129,5.328v.011a1.5,1.5,0,0,1-.124,1.412c-.017.025-.035.049-.053.072L6,9.139a8.635,8.635,0,0,0,3.64,3.61L11.926,10.8a.761.761,0,0,1,.07-.052,1.5,1.5,0,0,1,1.422-.131l.012.006,4.417,1.979a1.5,1.5,0,0,1,.7.631Zm-2.559,3.082a3.77,3.77,0,0,0,1.257-2.346h-.01L12.833,12l-2.279,1.944a.79.79,0,0,1-.069.052,1.5,1.5,0,0,1-1.477.107A10.126,10.126,0,0,1,4.653,9.781a1.5,1.5,0,0,1,.094-1.472A.574.574,0,0,1,4.8,8.237L6.738,5.917,4.769,1.511a.057.057,0,0,1,0-.011A3.769,3.769,0,0,0,1.5,5.25a12.013,12.013,0,0,0,12,12,3.77,3.77,0,0,0,2.493-.931Z" transform="translate(3 2.25)" fill="#f5f5f0"/>
  </g>
</svg>
