<svg id="Icon" xmlns="http://www.w3.org/2000/svg" width="27.696" height="18.464" viewBox="0 0 27.696 18.464">
  <path id="Path" d="M.222,1.61a.8.8,0,0,1,0-1.1L.491.229a.745.745,0,0,1,1.074,0l2.148,2.21L5.861.229a.745.745,0,0,1,1.074,0L7.2.505a.8.8,0,0,1,0,1.1L5.056,3.819,7.2,6.028a.8.8,0,0,1,0,1.1l-.268.276a.745.745,0,0,1-1.074,0L3.713,5.2,1.565,7.409a.745.745,0,0,1-1.074,0L.222,7.133a.8.8,0,0,1,0-1.1l2.148-2.21Z" transform="translate(12.821 5.619)" fill="#ec353a"/>
  <path id="Shape" d="M25.565,18.464H7.556a2.124,2.124,0,0,1-1.712-.881L.419,10.108A2.2,2.2,0,0,1,.489,7.432L5.879.788A2.11,2.11,0,0,1,7.521,0H25.565A2.154,2.154,0,0,1,27.7,2.172v14.12A2.154,2.154,0,0,1,25.565,18.464ZM7.521,2.172,2.132,8.817l5.424,7.475h18.01V2.172Z" transform="translate(0 0)" fill="#ec353a"/>
</svg>
