<svg xmlns="http://www.w3.org/2000/svg" width="42.453" height="42.454" viewBox="0 0 42.453 42.454">
  <path id="Icon_zocial-call" data-name="Icon zocial-call" d="M3.33,8.841a2.21,2.21,0,0,1,.563-1.2l4.5-4.5q.526-.45.788.15l3.638,6.826a.982.982,0,0,1-.188,1.163l-1.65,1.65a1.866,1.866,0,0,0-.525,1.163,5.725,5.725,0,0,0,1.163,2.888,24.662,24.662,0,0,0,2.288,3l1.163,1.2c.35.35.8.782,1.351,1.294A22.643,22.643,0,0,0,19.139,24.5a6.084,6.084,0,0,0,2.982,1.256,1.633,1.633,0,0,0,1.2-.488l1.951-1.95a.824.824,0,0,1,1.124-.15l6.565,3.863a.548.548,0,0,1,.3.394.479.479,0,0,1-.15.431l-4.5,4.5a2.2,2.2,0,0,1-1.2.561,9.073,9.073,0,0,1-4.146-.506,18.756,18.756,0,0,1-4.274-2.044q-1.969-1.275-3.657-2.587t-2.7-2.25l-.975-.939q-.374-.374-.994-1.031T8.506,20.974A37.667,37.667,0,0,1,5.843,17.2a21.988,21.988,0,0,1-1.95-4.182A8.9,8.9,0,0,1,3.33,8.841Z" transform="translate(46.848 21.014) rotate(135)" fill="#f5f5f0"/>
</svg>
