<svg xmlns="http://www.w3.org/2000/svg" width="18.165" height="21.8" viewBox="0 0 18.165 21.8">
  <g id="note" transform="translate(-11.47 -6.75)">
    <path id="Tracé_48" data-name="Tracé 48" d="M28.744,14H26.926a2.726,2.726,0,0,0,0,5.453h1.818a2.726,2.726,0,0,0,0-5.453Zm0,3.635H26.926a.909.909,0,1,1,0-1.818h1.818a.909.909,0,0,1,0,1.818Z" transform="translate(-6.374 -3.63)" fill="#f5f5f0"/>
    <path id="Tracé_49" data-name="Tracé 49" d="M30.551,39.49H25.089a.909.909,0,1,0,0,1.818h5.462a.909.909,0,0,0,0-1.818Z" transform="translate(-6.364 -16.392)" fill="#f5f5f0"/>
    <path id="Tracé_50" data-name="Tracé 50" d="M25.1,6.75H17.831a4.549,4.549,0,0,0-4.544,4.539V12.2h-.909a.909.909,0,0,0,0,1.818h.909v2.726h-.909a.909.909,0,1,0,0,1.818h.909V21.28h-.909a.909.909,0,1,0,0,1.818h.909v.909a4.549,4.549,0,0,0,4.544,4.544H25.1a4.549,4.549,0,0,0,4.539-4.544V11.289A4.544,4.544,0,0,0,25.1,6.75Zm2.726,17.256A2.731,2.731,0,0,1,25.1,26.733H17.831a2.731,2.731,0,0,1-2.726-2.726V11.289a2.726,2.726,0,0,1,2.726-2.721H25.1a2.726,2.726,0,0,1,2.726,2.721Z" fill="#f5f5f0"/>
  </g>
</svg>
