<svg xmlns="http://www.w3.org/2000/svg" width="36.38" height="36.38" viewBox="0 0 36.38 36.38">
  <g id="add" transform="translate(-11.62 -10.39)">
    <path id="Tracé_36" data-name="Tracé 36" d="M29.81,10.39A18.19,18.19,0,1,0,48,28.58,18.19,18.19,0,0,0,29.81,10.39Zm0,33.07A14.89,14.89,0,1,1,44.69,28.577,14.89,14.89,0,0,1,29.81,43.46Z" fill="#2f2fc9"/>
    <path id="Tracé_37" data-name="Tracé 37" d="M38.08,26.92H31.46V20.31a1.66,1.66,0,1,0-3.31,0v6.61H21.54a1.66,1.66,0,0,0,0,3.31h6.61v6.62a1.66,1.66,0,0,0,3.31,0V30.23h6.62a1.66,1.66,0,0,0,0-3.31Z" fill="#2f2fc9"/>
  </g>
</svg>
