<svg xmlns="http://www.w3.org/2000/svg" width="21.593" height="21.558" viewBox="0 0 21.593 21.558">
  <path id="call_1" d="M28.274,31.643A9.719,9.719,0,0,1,24.2,30.582a24.3,24.3,0,0,1-10.359-9.37A11.008,11.008,0,0,1,12,15.588a5.622,5.622,0,0,1,3.218-5.263,2.507,2.507,0,0,1,1.671-.166,2.874,2.874,0,0,1,1.013.593,34.306,34.306,0,0,1,2.59,2.311,3.734,3.734,0,0,1,1.126,1.719c.439,1.778-1.185,3.123-1.979,3.763l-.065.053a18.787,18.787,0,0,0,4.048,4.261l.362.29c.362.3.913.753,1.185.658a3.917,3.917,0,0,0,.853-.593,5.334,5.334,0,0,1,1.464-.913,2.062,2.062,0,0,1,1.019-.154,2.228,2.228,0,0,1,.966.433,25.424,25.424,0,0,1,3.42,2.91,1.9,1.9,0,0,1,.385,2.525,7.242,7.242,0,0,1-2.11,2.762,4.86,4.86,0,0,1-2.892.865ZM16.32,11.86a1.126,1.126,0,0,0-.415.1A3.925,3.925,0,0,0,13.778,15.6a9.124,9.124,0,0,0,1.576,4.7,22.52,22.52,0,0,0,9.6,8.7c2.963,1.4,4.516.818,5.18.344a5.672,5.672,0,0,0,1.535-2.122,1.558,1.558,0,0,0,.113-.261,1.374,1.374,0,0,0-.184-.213,22.994,22.994,0,0,0-3.177-2.7,1.654,1.654,0,0,0-.184-.119,1.138,1.138,0,0,0-.16.053,3.728,3.728,0,0,0-.978.64,5.209,5.209,0,0,1-1.3.83,1.914,1.914,0,0,1-.723.142,3.716,3.716,0,0,1-2.216-1.079l-.308-.255a20.677,20.677,0,0,1-4.457-4.694,1.778,1.778,0,0,1-.367-.966,1.837,1.837,0,0,1,.794-1.452c1.375-1.126,1.464-1.642,1.381-1.968a2.222,2.222,0,0,0-.646-.871c-.782-.77-1.612-1.511-2.465-2.2a1.7,1.7,0,0,0-.385-.261ZM28.22,23.92ZM19.479,18.45Z" transform="translate(-12 -10.086)" fill="#fff"/>
</svg>
