<svg xmlns="http://www.w3.org/2000/svg" width="21.308" height="22.728" viewBox="0 0 21.308 22.728">
  <path id="Icon_metro-calendar" data-name="Icon metro-calendar" d="M9.673,10.451h2.841v2.841H9.673Zm4.262,0h2.841v2.841H13.935Zm4.262,0h2.841v2.841H18.2ZM5.412,18.974H8.253v2.841H5.412Zm4.262,0h2.841v2.841H9.673Zm4.262,0h2.841v2.841H13.935ZM9.673,14.713h2.841v2.841H9.673Zm4.262,0h2.841v2.841H13.935Zm4.262,0h2.841v2.841H18.2Zm-12.785,0H8.253v2.841H5.412ZM21.038,1.928V3.349H18.2V1.928H8.253V3.349H5.412V1.928H2.571V24.657H23.879V1.928H21.038Zm1.421,21.308H3.991V7.61H22.458Z" transform="translate(-2.571 -1.928)" fill="#8c959f"/>
</svg>
