<svg xmlns="http://www.w3.org/2000/svg" width="17" height="15" viewBox="0 0 17 15">
  <path id="Vector" d="M16.284,6.425,2.069.129A1.517,1.517,0,0,0,1.257.013,1.489,1.489,0,0,0,.508.336,1.39,1.39,0,0,0,.061,1a1.336,1.336,0,0,0,0,.786L1.593,6.869H6.7a.675.675,0,0,1,.467.185.612.612,0,0,1,0,.893.675.675,0,0,1-.467.185H1.593L.057,13.216a1.34,1.34,0,0,0-.033.638,1.369,1.369,0,0,0,.267.585,1.448,1.448,0,0,0,.512.41,1.494,1.494,0,0,0,1.266.018l14.214-6.3a1.222,1.222,0,0,0,.522-.437,1.14,1.14,0,0,0,0-1.274,1.222,1.222,0,0,0-.522-.437Z" fill="#fff"/>
</svg>
