<svg xmlns="http://www.w3.org/2000/svg" width="21.593" height="19.784" viewBox="0 0 21.593 19.784">
  <path id="mes" d="M29.462,17.849v-.991a4.5,4.5,0,0,0-4.5-4.5h-9a4.5,4.5,0,0,0-4.5,4.5V24.4a2.374,2.374,0,0,0,3.406,2.107l.231-.119a4.5,4.5,0,0,0,4.462,3.958h6.848a.593.593,0,0,1,.249.059l2.967,1.489a2.326,2.326,0,0,0,1.056.249,2.374,2.374,0,0,0,2.374-2.374V22.234A4.5,4.5,0,0,0,29.462,17.849Zm-14.39,4.385v2.142l-1,.5a.593.593,0,0,1-.8-.5V16.858a2.694,2.694,0,0,1,2.694-2.694h9a2.7,2.7,0,0,1,2.7,2.694v.9H19.57a4.5,4.5,0,0,0-4.5,4.474ZM31.259,29.77a.593.593,0,0,1-.8.5l-2.967-1.489a2.4,2.4,0,0,0-1.056-.249H19.57a2.7,2.7,0,0,1-2.7-2.7v-3.6a2.7,2.7,0,0,1,2.7-2.7h9a2.7,2.7,0,0,1,2.694,2.7Z" transform="translate(-11.47 -12.36)" fill="#fff"/>
</svg>
